<?xml version="1.0" encoding="UTF-8"?>
<!-- Created with Inkscape (http://www.inkscape.org/) -->
<svg width="450pt" height="160pt" version="1.1" xmlns="http://www.w3.org/2000/svg" xmlns:cc="http://creativecommons.org/ns#" xmlns:dc="http://purl.org/dc/elements/1.1/" xmlns:rdf="http://www.w3.org/1999/02/22-rdf-syntax-ns#">
 <metadata>
  <rdf:RDF>
   <cc:Work rdf:about="">
    <dc:format>image/svg+xml</dc:format>
    <dc:type rdf:resource="http://purl.org/dc/dcmitype/StillImage"/>
    <dc:title/>
   </cc:Work>
  </rdf:RDF>
 </metadata>
 <defs>
  <marker id="Arrow1Lstart" overflow="visible" orient="auto">
   <path transform="scale(.8)" d="m0 0 5-5-17.5 5 17.5 5-5-5z" fill-rule="evenodd" stroke="#000" stroke-width="1pt"/>
  </marker>
 </defs>
 <g transform="translate(-218,-418)">
  <rect x="240" y="515.36" width="106" height="36" color="#000000" fill="#7f7fff" fill-opacity=".13816" stroke="#000" stroke-width="1px"/>
  <g transform="translate(.54121 -.010044)" aria-label="DNS Iterator">
   <path d="m257.06 529.94v6.8027h1.4297q1.8105 0 2.6484-0.82031 0.84375-0.82031 0.84375-2.5898 0-1.7578-0.84375-2.5723-0.83789-0.82031-2.6484-0.82031zm-1.1836-0.97266h2.4316q2.543 0 3.7324 1.0606 1.1894 1.0547 1.1894 3.3047 0 2.2617-1.1953 3.3223t-3.7266 1.0606h-2.4316z"/>
   <path d="m265.11 528.96h1.5938l3.8789 7.3184v-7.3184h1.1484v8.748h-1.5938l-3.8789-7.3184v7.3184h-1.1484z"/>
   <path d="m279.33 529.25v1.1543q-0.67382-0.32227-1.2715-0.48047t-1.1543-0.1582q-0.96679 0-1.4941 0.375-0.52148 0.375-0.52148 1.0664 0 0.58008 0.3457 0.87891 0.35156 0.29297 1.3242 0.47461l0.71484 0.14648q1.3242 0.25196 1.9512 0.89063 0.63281 0.63281 0.63281 1.6992 0 1.2715-0.85547 1.9277-0.84961 0.65625-2.4961 0.65625-0.6211 0-1.3242-0.14062-0.69727-0.14063-1.4473-0.41602v-1.2188q0.7207 0.4043 1.4121 0.60937 0.69141 0.20508 1.3594 0.20508 1.0137 0 1.5644-0.39843 0.55078-0.39844 0.55078-1.1367 0-0.64453-0.39844-1.0078-0.39258-0.36328-1.2949-0.54492l-0.7207-0.14062q-1.3242-0.26367-1.916-0.82617t-0.5918-1.5645q0-1.1602 0.81446-1.8281 0.82031-0.66797 2.2559-0.66797 0.61523 0 1.2539 0.11133 0.63868 0.11132 1.3066 0.33398z"/>
   <path d="m285.53 528.96h1.1836v8.748h-1.1836z"/>
   <path d="m290.09 529.29v1.8633h2.2207v0.83789h-2.2207v3.5625q0 0.80273 0.21679 1.0312 0.22266 0.22851 0.89649 0.22851h1.1074v0.90235h-1.1074q-1.248 0-1.7227-0.46289-0.47461-0.46875-0.47461-1.6992v-3.5625h-0.79101v-0.83789h0.79101v-1.8633z"/>
   <path d="m299.34 534.16v0.52734h-4.957q0.0703 1.1133 0.66797 1.6992 0.60351 0.58008 1.6758 0.58008 0.62109 0 1.2012-0.15235 0.58594-0.15234 1.1602-0.45703v1.0195q-0.58008 0.2461-1.1895 0.375-0.60937 0.12891-1.2363 0.12891-1.5703 0-2.4902-0.91406-0.91406-0.91406-0.91406-2.4727 0-1.6113 0.86719-2.5547 0.87304-0.94921 2.3496-0.94921 1.3242 0 2.0918 0.85546 0.77344 0.84961 0.77344 2.3145zm-1.0781-0.31641q-0.0117-0.88476-0.49804-1.4121-0.48047-0.52734-1.2774-0.52734-0.90234 0-1.4473 0.50976-0.53906 0.50977-0.6211 1.4356z"/>
   <path d="m304.92 532.16q-0.18165-0.10547-0.39844-0.15234-0.21094-0.0527-0.46875-0.0527-0.91406 0-1.4062 0.59766-0.48633 0.5918-0.48633 1.7051v3.457h-1.084v-6.5625h1.084v1.0195q0.33984-0.59766 0.88477-0.88477 0.54492-0.29296 1.3242-0.29296 0.11133 0 0.2461 0.0176 0.13476 0.0117 0.29883 0.041z"/>
   <path d="m309.04 534.41q-1.3066 0-1.8106 0.29883-0.50391 0.29883-0.50391 1.0195 0 0.57422 0.375 0.91406 0.38086 0.33399 1.0312 0.33399 0.89649 0 1.4356-0.63282 0.54492-0.63867 0.54492-1.6934v-0.24023zm2.1504-0.44531v3.7441h-1.0781v-0.9961q-0.36914 0.59766-0.91992 0.88477-0.55078 0.28125-1.3477 0.28125-1.0078 0-1.6055-0.5625-0.59179-0.56836-0.59179-1.5176 0-1.1074 0.73828-1.6699 0.74414-0.5625 2.2148-0.5625h1.5117v-0.10547q0-0.74414-0.49219-1.1484-0.48632-0.41015-1.3711-0.41015-0.5625 0-1.0957 0.13476-0.53321 0.13477-1.0254 0.4043v-0.99609q0.59179-0.22852 1.1484-0.33985 0.55664-0.11718 1.084-0.11718 1.4238 0 2.127 0.73828 0.70313 0.73828 0.70313 2.2383z"/>
   <path d="m314.48 529.29v1.8633h2.2207v0.83789h-2.2207v3.5625q0 0.80273 0.2168 1.0312 0.22266 0.22851 0.89649 0.22851h1.1074v0.90235h-1.1074q-1.248 0-1.7227-0.46289-0.47461-0.46875-0.47461-1.6992v-3.5625h-0.79102v-0.83789h0.79102v-1.8633z"/>
   <path d="m320.67 531.91q-0.86718 0-1.3711 0.67969-0.50391 0.67382-0.50391 1.8516 0 1.1777 0.49805 1.8574 0.50391 0.67383 1.377 0.67383 0.86133 0 1.3652-0.67969t0.50391-1.8516q0-1.166-0.50391-1.8457-0.50391-0.68554-1.3652-0.68554zm0-0.91406q1.4062 0 2.209 0.91406 0.80273 0.91406 0.80273 2.5312 0 1.6113-0.80273 2.5312-0.80274 0.91406-2.209 0.91406-1.4121 0-2.2148-0.91406-0.79687-0.91992-0.79687-2.5312 0-1.6172 0.79687-2.5312 0.80274-0.91406 2.2148-0.91406z"/>
   <path d="m329.27 532.16q-0.18164-0.10547-0.39844-0.15234-0.21094-0.0527-0.46875-0.0527-0.91406 0-1.4062 0.59766-0.48633 0.5918-0.48633 1.7051v3.457h-1.084v-6.5625h1.084v1.0195q0.33985-0.59766 0.88477-0.88477 0.54492-0.29296 1.3242-0.29296 0.11132 0 0.24609 0.0176 0.13477 0.0117 0.29883 0.041z"/>
  </g>
 </g>
 <g transform="translate(-120,-396)">
  <rect x="443.99" y="425.88" width="106" height="36" color="#000000" fill="#ffff7f" fill-opacity=".27632" stroke="#000" stroke-width="1px"/>
  <g aria-label="rootnameserver">
   <path d="m489.33 434.95q-0.18164-0.10547-0.39844-0.15235-0.21094-0.0527-0.46875-0.0527-0.91406 0-1.4062 0.59766-0.48633 0.59179-0.48633 1.7051v3.457h-1.084v-6.5625h1.084v1.0195q0.33985-0.59766 0.88477-0.88477 0.54492-0.29297 1.3242-0.29297 0.11132 0 0.24609 0.0176 0.13477 0.0117 0.29883 0.041z" style=""/>
   <path d="m492.76 434.69q-0.86719 0-1.3711 0.67968-0.50391 0.67383-0.50391 1.8516 0 1.1777 0.49805 1.8574 0.50391 0.67383 1.377 0.67383 0.86133 0 1.3652-0.67969 0.5039-0.67969 0.5039-1.8516 0-1.166-0.5039-1.8457-0.50391-0.68554-1.3652-0.68554zm0-0.91407q1.4062 0 2.209 0.91407 0.80273 0.91406 0.80273 2.5312 0 1.6113-0.80273 2.5312-0.80274 0.91406-2.209 0.91406-1.4121 0-2.2148-0.91406-0.79688-0.91993-0.79688-2.5312 0-1.6172 0.79688-2.5312 0.80273-0.91407 2.2148-0.91407z" style=""/>
   <path d="m500.1 434.69q-0.86719 0-1.3711 0.67968-0.50391 0.67383-0.50391 1.8516 0 1.1777 0.49805 1.8574 0.5039 0.67383 1.377 0.67383 0.86133 0 1.3652-0.67969 0.50391-0.67969 0.50391-1.8516 0-1.166-0.50391-1.8457-0.5039-0.68554-1.3652-0.68554zm0-0.91407q1.4062 0 2.209 0.91407 0.80274 0.91406 0.80274 2.5312 0 1.6113-0.80274 2.5312-0.80273 0.91406-2.209 0.91406-1.4121 0-2.2148-0.91406-0.79688-0.91993-0.79688-2.5312 0-1.6172 0.79688-2.5312 0.80273-0.91407 2.2148-0.91407z" style=""/>
   <path d="m505.96 432.07v1.8633h2.2207v0.83789h-2.2207v3.5625q0 0.80273 0.2168 1.0312 0.22266 0.22851 0.89649 0.22851h1.1074v0.90235h-1.1074q-1.248 0-1.7227-0.46289-0.47461-0.46875-0.47461-1.6992v-3.5625h-0.79102v-0.83789h0.79102v-1.8633z" style=""/>
   <path d="m466.99 451.54v3.9609h-1.0781v-3.9258q0-0.93164-0.36328-1.3945-0.36329-0.46289-1.0898-0.46289-0.87305 0-1.377 0.55664-0.50391 0.55664-0.50391 1.5176v3.709h-1.084v-6.5625h1.084v1.0195q0.38672-0.5918 0.90821-0.88477 0.52734-0.29297 1.2129-0.29297 1.1309 0 1.7109 0.70313 0.58008 0.69726 0.58008 2.0566z" style=""/>
   <path d="m472.13 452.2q-1.3066 0-1.8105 0.29883-0.50391 0.29882-0.50391 1.0195 0 0.57422 0.375 0.91406 0.38086 0.33398 1.0312 0.33398 0.89648 0 1.4356-0.63281 0.54492-0.63867 0.54492-1.6934v-0.24023zm2.1504-0.44531v3.7441h-1.0781v-0.9961q-0.36914 0.59766-0.91992 0.88477-0.55078 0.28125-1.3477 0.28125-1.0078 0-1.6055-0.5625-0.5918-0.56836-0.5918-1.5176 0-1.1074 0.73829-1.6699 0.74414-0.5625 2.2148-0.5625h1.5117v-0.10547q0-0.74414-0.49219-1.1484-0.48633-0.41015-1.3711-0.41015-0.5625 0-1.0957 0.13476-0.5332 0.13477-1.0254 0.4043v-0.9961q0.5918-0.22851 1.1484-0.33984 0.55664-0.11719 1.084-0.11719 1.4238 0 2.127 0.73828 0.70312 0.73829 0.70312 2.2383z" style=""/>
   <path d="m481.62 450.2q0.4043-0.72656 0.9668-1.0723 0.5625-0.34571 1.3242-0.34571 1.0254 0 1.582 0.72071 0.55664 0.71484 0.55664 2.0391v3.9609h-1.084v-3.9258q0-0.94335-0.33398-1.4004-0.33398-0.45703-1.0195-0.45703-0.83789 0-1.3242 0.55664t-0.48633 1.5176v3.709h-1.084v-3.9258q0-0.94921-0.33399-1.4004-0.33398-0.45703-1.0312-0.45703-0.82617 0-1.3125 0.5625-0.48633 0.55664-0.48633 1.5117v3.709h-1.084v-6.5625h1.084v1.0195q0.36915-0.60352 0.88477-0.89063 0.51563-0.28711 1.2246-0.28711 0.71484 0 1.2129 0.36328 0.50391 0.36329 0.74414 1.0547z" style=""/>
   <path d="m493.82 451.95v0.52735h-4.957q0.0703 1.1133 0.66797 1.6992 0.60351 0.58008 1.6758 0.58008 0.62109 0 1.2012-0.15235 0.58594-0.15234 1.1602-0.45703v1.0195q-0.58008 0.2461-1.1895 0.375-0.60937 0.12891-1.2363 0.12891-1.5703 0-2.4902-0.91406-0.91406-0.91407-0.91406-2.4727 0-1.6113 0.86719-2.5547 0.87304-0.94922 2.3496-0.94922 1.3242 0 2.0918 0.85547 0.77344 0.84961 0.77344 2.3144zm-1.0781-0.3164q-0.0117-0.88477-0.49804-1.4121-0.48047-0.52734-1.2774-0.52734-0.90234 0-1.4473 0.50976-0.53906 0.50977-0.6211 1.4356z" style=""/>
   <path d="m499.77 449.13v1.0195q-0.45703-0.23438-0.94921-0.35157-0.49219-0.11718-1.0195-0.11718-0.80273 0-1.207 0.24609-0.39843 0.24609-0.39843 0.73828 0 0.375 0.28711 0.5918 0.2871 0.21094 1.1543 0.4043l0.36914 0.082q1.1484 0.24609 1.6289 0.69726 0.48633 0.44531 0.48633 1.248 0 0.91406-0.72657 1.4473-0.7207 0.53321-1.9863 0.53321-0.52735 0-1.1016-0.10547-0.56836-0.0996-1.2012-0.30469v-1.1133q0.59766 0.31055 1.1777 0.46875 0.58007 0.15234 1.1484 0.15234 0.76172 0 1.1719-0.25781 0.41016-0.26367 0.41016-0.73828 0-0.43945-0.29883-0.67383-0.29297-0.23437-1.2949-0.45117l-0.375-0.0879q-1.002-0.21094-1.4473-0.64453-0.44531-0.43945-0.44531-1.2012 0-0.92578 0.65625-1.4297t1.8633-0.50391q0.59765 0 1.125 0.0879 0.52734 0.0879 0.97265 0.26368z" style=""/>
   <path d="m507.46 451.95v0.52735h-4.957q0.0703 1.1133 0.66797 1.6992 0.60352 0.58008 1.6758 0.58008 0.6211 0 1.2012-0.15235 0.58593-0.15234 1.1602-0.45703v1.0195q-0.58008 0.2461-1.1894 0.375-0.60938 0.12891-1.2363 0.12891-1.5703 0-2.4902-0.91406-0.91407-0.91407-0.91407-2.4727 0-1.6113 0.86719-2.5547 0.87305-0.94922 2.3496-0.94922 1.3242 0 2.0918 0.85547 0.77343 0.84961 0.77343 2.3144zm-1.0781-0.3164q-0.0117-0.88477-0.49805-1.4121-0.48047-0.52734-1.2773-0.52734-0.90234 0-1.4473 0.50976-0.53906 0.50977-0.62109 1.4356z" style=""/>
   <path d="m513.03 449.95q-0.18164-0.10547-0.39844-0.15235-0.21093-0.0527-0.46875-0.0527-0.91406 0-1.4062 0.59766-0.48633 0.59179-0.48633 1.7051v3.457h-1.084v-6.5625h1.084v1.0195q0.33985-0.59766 0.88477-0.88477 0.54492-0.29297 1.3242-0.29297 0.11133 0 0.24609 0.0176 0.13477 0.0117 0.29883 0.041z" style=""/>
   <path d="m513.4 448.94h1.1426l2.0508 5.5078 2.0508-5.5078h1.1426l-2.4609 6.5625h-1.4648z" style=""/>
   <path d="m526.89 451.95v0.52735h-4.957q0.0703 1.1133 0.66797 1.6992 0.60352 0.58008 1.6758 0.58008 0.62109 0 1.2012-0.15235 0.58594-0.15234 1.1602-0.45703v1.0195q-0.58008 0.2461-1.1894 0.375-0.60938 0.12891-1.2363 0.12891-1.5703 0-2.4902-0.91406-0.91406-0.91407-0.91406-2.4727 0-1.6113 0.86719-2.5547 0.87305-0.94922 2.3496-0.94922 1.3242 0 2.0918 0.85547 0.77344 0.84961 0.77344 2.3144zm-1.0781-0.3164q-0.0117-0.88477-0.49805-1.4121-0.48047-0.52734-1.2773-0.52734-0.90235 0-1.4473 0.50976-0.53906 0.50977-0.62109 1.4356z" style=""/>
   <path d="m532.46 449.95q-0.18164-0.10547-0.39844-0.15235-0.21094-0.0527-0.46875-0.0527-0.91406 0-1.4062 0.59766-0.48633 0.59179-0.48633 1.7051v3.457h-1.084v-6.5625h1.084v1.0195q0.33985-0.59766 0.88477-0.88477 0.54492-0.29297 1.3242-0.29297 0.11132 0 0.24609 0.0176 0.13477 0.0117 0.29883 0.041z" style=""/>
  </g>
 </g>
 <g transform="translate(-123.01 -401.99)">
  <rect x="447" y="483.87" width="106" height="36" color="#000000" fill="#ffff7f" fill-opacity=".27632" stroke="#000" stroke-width="1px"/>
  <g aria-label="org.nameserver">
   <path d="m491.7 492.87q-0.86719 0-1.3711 0.67968-0.5039 0.67383-0.5039 1.8516 0 1.1777 0.49804 1.8574 0.50391 0.67383 1.377 0.67383 0.86132 0 1.3652-0.67969t0.50391-1.8516q0-1.166-0.50391-1.8457-0.50391-0.68554-1.3652-0.68554zm0-0.91407q1.4062 0 2.209 0.91407 0.80273 0.91406 0.80273 2.5312 0 1.6113-0.80273 2.5312-0.80273 0.91406-2.209 0.91406-1.4121 0-2.2148-0.91406-0.79687-0.91993-0.79687-2.5312 0-1.6172 0.79687-2.5312 0.80274-0.91407 2.2148-0.91407z" style=""/>
   <path d="m500.29 493.12q-0.18164-0.10547-0.39844-0.15234-0.21094-0.0527-0.46875-0.0527-0.91406 0-1.4062 0.59766-0.48633 0.59179-0.48633 1.7051v3.457h-1.084v-6.5625h1.084v1.0195q0.33985-0.59766 0.88477-0.88477 0.54492-0.29297 1.3242-0.29297 0.11133 0 0.24609 0.0176 0.13477 0.0117 0.29883 0.041z" style=""/>
   <path d="m505.54 495.32q0-1.1719-0.48633-1.8164-0.48047-0.64453-1.3535-0.64453-0.86718 0-1.3535 0.64453-0.48047 0.64453-0.48047 1.8164 0 1.166 0.48047 1.8105 0.48633 0.64453 1.3535 0.64453 0.87305 0 1.3535-0.64453 0.48633-0.64453 0.48633-1.8105zm1.0781 2.543q0 1.6758-0.74414 2.4902-0.74414 0.82031-2.2793 0.82031-0.56836 0-1.0723-0.0879-0.50391-0.082-0.97852-0.25781v-1.0488q0.47461 0.25781 0.9375 0.38086 0.4629 0.12305 0.94336 0.12305 1.0606 0 1.5879-0.55664 0.52735-0.55079 0.52735-1.6699v-0.5332q-0.33399 0.58008-0.85547 0.86719t-1.248 0.28711q-1.207 0-1.9453-0.91992-0.73828-0.91993-0.73828-2.4375 0-1.5234 0.73828-2.4434 0.73828-0.91993 1.9453-0.91993 0.72657 0 1.248 0.28711t0.85547 0.86719v-0.99609h1.0781z" style=""/>
   <path d="m508.99 497.19h1.2363v1.4883h-1.2363z" style=""/>
   <path d="m470.33 509.72v3.9609h-1.0781v-3.9258q0-0.93164-0.36328-1.3945-0.36328-0.46289-1.0898-0.46289-0.87304 0-1.377 0.55664-0.5039 0.55665-0.5039 1.5176v3.709h-1.084v-6.5625h1.084v1.0195q0.38671-0.5918 0.9082-0.88477 0.52734-0.29297 1.2129-0.29297 1.1309 0 1.7109 0.70313 0.58007 0.69726 0.58007 2.0566z" style=""/>
   <path d="m475.47 510.38q-1.3066 0-1.8106 0.29883t-0.50391 1.0195q0 0.57422 0.375 0.91406 0.38086 0.33399 1.0312 0.33399 0.89649 0 1.4356-0.63282 0.54492-0.63867 0.54492-1.6934v-0.24023zm2.1504-0.44531v3.7441h-1.0781v-0.9961q-0.36914 0.59766-0.91992 0.88477-0.55078 0.28125-1.3477 0.28125-1.0078 0-1.6055-0.5625-0.59179-0.56836-0.59179-1.5176 0-1.1074 0.73828-1.6699 0.74414-0.5625 2.2148-0.5625h1.5117v-0.10547q0-0.74414-0.49219-1.1484-0.48632-0.41015-1.3711-0.41015-0.5625 0-1.0957 0.13476-0.53321 0.13477-1.0254 0.4043v-0.99609q0.59179-0.22852 1.1484-0.33985 0.55664-0.11719 1.084-0.11719 1.4238 0 2.127 0.73829 0.70313 0.73828 0.70313 2.2383z" style=""/>
   <path d="m484.96 508.38q0.4043-0.72656 0.9668-1.0723 0.5625-0.34571 1.3242-0.34571 1.0254 0 1.582 0.72071 0.55664 0.71484 0.55664 2.0391v3.9609h-1.084v-3.9258q0-0.94336-0.33399-1.4004-0.33398-0.45704-1.0195-0.45704-0.83789 0-1.3242 0.55664-0.48633 0.55665-0.48633 1.5176v3.709h-1.084v-3.9258q0-0.94922-0.33398-1.4004-0.33399-0.45704-1.0312-0.45704-0.82618 0-1.3125 0.5625-0.48633 0.55664-0.48633 1.5117v3.709h-1.084v-6.5625h1.084v1.0195q0.36914-0.60352 0.88476-0.89063 0.51563-0.28711 1.2246-0.28711 0.71485 0 1.2129 0.36329 0.50391 0.36328 0.74414 1.0547z" style=""/>
   <path d="m497.16 510.13v0.52734h-4.957q0.0703 1.1133 0.66797 1.6992 0.60352 0.58008 1.6758 0.58008 0.6211 0 1.2012-0.15235 0.58594-0.15234 1.1602-0.45703v1.0195q-0.58008 0.2461-1.1894 0.375-0.60938 0.12891-1.2363 0.12891-1.5703 0-2.4902-0.91406-0.91406-0.91407-0.91406-2.4727 0-1.6113 0.86719-2.5547 0.87305-0.94922 2.3496-0.94922 1.3242 0 2.0918 0.85547 0.77343 0.84961 0.77343 2.3145zm-1.0781-0.31641q-0.0117-0.88477-0.49805-1.4121-0.48047-0.52734-1.2773-0.52734-0.90235 0-1.4473 0.50976-0.53906 0.50977-0.62109 1.4356z" style=""/>
   <path d="m503.11 507.31v1.0195q-0.45703-0.23438-0.94922-0.35156-0.49219-0.11719-1.0195-0.11719-0.80274 0-1.207 0.24609-0.39844 0.2461-0.39844 0.73828 0 0.375 0.28711 0.5918 0.28711 0.21094 1.1543 0.4043l0.36914 0.082q1.1484 0.24609 1.6289 0.69726 0.48633 0.44532 0.48633 1.248 0 0.91406-0.72656 1.4473-0.72071 0.5332-1.9863 0.5332-0.52734 0-1.1016-0.10547-0.56836-0.0996-1.2012-0.30469v-1.1133q0.59765 0.31055 1.1777 0.46875 0.58008 0.15235 1.1484 0.15235 0.76172 0 1.1719-0.25782 0.41016-0.26367 0.41016-0.73828 0-0.43945-0.29883-0.67383-0.29297-0.23437-1.2949-0.45117l-0.375-0.0879q-1.002-0.21094-1.4473-0.64453-0.44531-0.43945-0.44531-1.2012 0-0.92578 0.65625-1.4297t1.8633-0.50391q0.59766 0 1.125 0.0879 0.52735 0.0879 0.97266 0.26368z" style=""/>
   <path d="m510.8 510.13v0.52734h-4.957q0.0703 1.1133 0.66797 1.6992 0.60351 0.58008 1.6758 0.58008 0.62109 0 1.2012-0.15235 0.58594-0.15234 1.1602-0.45703v1.0195q-0.58007 0.2461-1.1894 0.375-0.60937 0.12891-1.2363 0.12891-1.5703 0-2.4902-0.91406-0.91406-0.91407-0.91406-2.4727 0-1.6113 0.86718-2.5547 0.87305-0.94922 2.3496-0.94922 1.3242 0 2.0918 0.85547 0.77344 0.84961 0.77344 2.3145zm-1.0781-0.31641q-0.0117-0.88477-0.49804-1.4121-0.48047-0.52734-1.2774-0.52734-0.90234 0-1.4473 0.50976-0.53907 0.50977-0.6211 1.4356z" style=""/>
   <path d="m516.37 508.12q-0.18164-0.10547-0.39843-0.15234-0.21094-0.0527-0.46875-0.0527-0.91407 0-1.4062 0.59766-0.48633 0.59179-0.48633 1.7051v3.457h-1.084v-6.5625h1.084v1.0195q0.33984-0.59766 0.88476-0.88477 0.54493-0.29297 1.3242-0.29297 0.11133 0 0.2461 0.0176 0.13476 0.0117 0.29882 0.041z" style=""/>
   <path d="m516.74 507.12h1.1426l2.0508 5.5078 2.0508-5.5078h1.1426l-2.4609 6.5625h-1.4648z" style=""/>
   <path d="m530.23 510.13v0.52734h-4.957q0.0703 1.1133 0.66797 1.6992 0.60352 0.58008 1.6758 0.58008 0.6211 0 1.2012-0.15235 0.58593-0.15234 1.1602-0.45703v1.0195q-0.58008 0.2461-1.1894 0.375-0.60938 0.12891-1.2363 0.12891-1.5703 0-2.4902-0.91406-0.91407-0.91407-0.91407-2.4727 0-1.6113 0.86719-2.5547 0.87305-0.94922 2.3496-0.94922 1.3242 0 2.0918 0.85547 0.77344 0.84961 0.77344 2.3145zm-1.0781-0.31641q-0.0117-0.88477-0.49805-1.4121-0.48047-0.52734-1.2773-0.52734-0.90234 0-1.4473 0.50976-0.53906 0.50977-0.62109 1.4356z" style=""/>
   <path d="m535.8 508.12q-0.18164-0.10547-0.39844-0.15234-0.21093-0.0527-0.46875-0.0527-0.91406 0-1.4062 0.59766-0.48632 0.59179-0.48632 1.7051v3.457h-1.084v-6.5625h1.084v1.0195q0.33984-0.59766 0.88476-0.88477 0.54492-0.29297 1.3242-0.29297 0.11133 0 0.24609 0.0176 0.13477 0.0117 0.29883 0.041z" style=""/>
  </g>
 </g>
 <g transform="translate(-123.01 -349.99)">
  <rect x="447" y="483.87" width="106" height="36" color="#000000" fill="#ffff7f" fill-opacity=".27632" stroke="#000" stroke-width="1px"/>
  <g aria-label="wikipedia.org.nameserver">
   <path d="m458.25 492.12h1.0781l1.3476 5.1211 1.3418-5.1211h1.2715l1.3476 5.1211 1.3418-5.1211h1.0781l-1.7168 6.5625h-1.2715l-1.4121-5.3789-1.418 5.3789h-1.2715z" style=""/>
   <path d="m468.69 492.12h1.0781v6.5625h-1.0781zm0-2.5547h1.0781v1.3652h-1.0781z" style=""/>
   <path d="m471.98 489.56h1.084v5.3848l3.2168-2.8301h1.377l-3.4805 3.0703 3.627 3.4922h-1.4062l-3.334-3.2051v3.2051h-1.084z" style=""/>
   <path d="m478.98 492.12h1.0781v6.5625h-1.0781zm0-2.5547h1.0781v1.3652h-1.0781z" style=""/>
   <path d="m483.35 497.69v3.4805h-1.084v-9.0586h1.084v0.99609q0.33984-0.58594 0.85546-0.86719 0.52149-0.28711 1.2422-0.28711 1.1953 0 1.9394 0.94922 0.75 0.94922 0.75 2.4961 0 1.5469-0.75 2.4961-0.74414 0.94922-1.9394 0.94922-0.7207 0-1.2422-0.28125-0.51562-0.28711-0.85546-0.87305zm3.668-2.291q0-1.1895-0.49218-1.8633-0.48633-0.67969-1.3418-0.67969t-1.3477 0.67969q-0.48632 0.67382-0.48632 1.8633 0 1.1894 0.48632 1.8691 0.49219 0.67383 1.3477 0.67383t1.3418-0.67383q0.49218-0.67969 0.49218-1.8691z" style=""/>
   <path d="m495.54 495.13v0.52734h-4.957q0.0703 1.1133 0.66797 1.6992 0.60352 0.58008 1.6758 0.58008 0.6211 0 1.2012-0.15235 0.58593-0.15234 1.1602-0.45703v1.0195q-0.58008 0.2461-1.1894 0.375-0.60938 0.12891-1.2363 0.12891-1.5703 0-2.4902-0.91406-0.91407-0.91407-0.91407-2.4727 0-1.6113 0.86719-2.5547 0.87305-0.94922 2.3496-0.94922 1.3242 0 2.0918 0.85547 0.77344 0.84961 0.77344 2.3145zm-1.0781-0.31641q-0.0117-0.88477-0.49805-1.4121-0.48047-0.52734-1.2773-0.52734-0.90234 0-1.4473 0.50976-0.53906 0.50977-0.62109 1.4356z" style=""/>
   <path d="m501.63 493.11v-3.5508h1.0781v9.1172h-1.0781v-0.98438q-0.33985 0.58594-0.86133 0.87305-0.51563 0.28125-1.2422 0.28125-1.1894 0-1.9394-0.94922-0.74414-0.94922-0.74414-2.4961 0-1.5469 0.74414-2.4961 0.75-0.94922 1.9394-0.94922 0.72656 0 1.2422 0.28711 0.52148 0.28125 0.86133 0.86719zm-3.6738 2.291q0 1.1894 0.48633 1.8691 0.49218 0.67383 1.3476 0.67383t1.3477-0.67383q0.49219-0.67969 0.49219-1.8691 0-1.1895-0.49219-1.8633-0.49219-0.67969-1.3477-0.67969t-1.3476 0.67969q-0.48633 0.67382-0.48633 1.8633z" style=""/>
   <path d="m504.93 492.12h1.0781v6.5625h-1.0781zm0-2.5547h1.0781v1.3652h-1.0781z" style=""/>
   <path d="m511.24 495.38q-1.3066 0-1.8106 0.29883-0.5039 0.29883-0.5039 1.0195 0 0.57422 0.375 0.91406 0.38086 0.33399 1.0312 0.33399 0.89648 0 1.4355-0.63282 0.54493-0.63867 0.54493-1.6934v-0.24023zm2.1504-0.44531v3.7441h-1.0781v-0.9961q-0.36914 0.59766-0.91993 0.88477-0.55078 0.28125-1.3476 0.28125-1.0078 0-1.6055-0.5625-0.5918-0.56836-0.5918-1.5176 0-1.1074 0.73828-1.6699 0.74414-0.5625 2.2148-0.5625h1.5117v-0.10547q0-0.74414-0.49219-1.1484-0.48633-0.41015-1.3711-0.41015-0.5625 0-1.0957 0.13476-0.5332 0.13477-1.0254 0.4043v-0.99609q0.5918-0.22852 1.1484-0.33985 0.55664-0.11719 1.084-0.11719 1.4238 0 2.127 0.73829 0.70312 0.73828 0.70312 2.2383z" style=""/>
   <path d="m515.77 497.19h1.2363v1.4883h-1.2363z" style=""/>
   <path d="m521.98 492.87q-0.86719 0-1.3711 0.67968-0.5039 0.67383-0.5039 1.8516 0 1.1777 0.49804 1.8574 0.50391 0.67383 1.377 0.67383 0.86132 0 1.3652-0.67969t0.50391-1.8516q0-1.166-0.50391-1.8457-0.50391-0.68554-1.3652-0.68554zm0-0.91407q1.4062 0 2.209 0.91407 0.80273 0.91406 0.80273 2.5312 0 1.6113-0.80273 2.5312-0.80273 0.91406-2.209 0.91406-1.4121 0-2.2148-0.91406-0.79687-0.91993-0.79687-2.5312 0-1.6172 0.79687-2.5312 0.80274-0.91407 2.2148-0.91407z" style=""/>
   <path d="m530.57 493.12q-0.18164-0.10547-0.39844-0.15234-0.21094-0.0527-0.46875-0.0527-0.91406 0-1.4062 0.59766-0.48633 0.59179-0.48633 1.7051v3.457h-1.084v-6.5625h1.084v1.0195q0.33985-0.59766 0.88477-0.88477 0.54492-0.29297 1.3242-0.29297 0.11133 0 0.24609 0.0176 0.13477 0.0117 0.29883 0.041z" style=""/>
   <path d="m535.82 495.32q0-1.1719-0.48633-1.8164-0.48047-0.64453-1.3535-0.64453-0.86718 0-1.3535 0.64453-0.48047 0.64453-0.48047 1.8164 0 1.166 0.48047 1.8105 0.48633 0.64453 1.3535 0.64453 0.87305 0 1.3535-0.64453 0.48633-0.64453 0.48633-1.8105zm1.0781 2.543q0 1.6758-0.74414 2.4902-0.74414 0.82031-2.2793 0.82031-0.56836 0-1.0723-0.0879-0.50391-0.082-0.97852-0.25781v-1.0488q0.47461 0.25781 0.9375 0.38086 0.4629 0.12305 0.94336 0.12305 1.0606 0 1.5879-0.55664 0.52735-0.55079 0.52735-1.6699v-0.5332q-0.33399 0.58008-0.85547 0.86719t-1.248 0.28711q-1.207 0-1.9453-0.91992-0.73828-0.91993-0.73828-2.4375 0-1.5234 0.73828-2.4434 0.73828-0.91993 1.9453-0.91993 0.72657 0 1.248 0.28711t0.85547 0.86719v-0.99609h1.0781z" style=""/>
   <path d="m539.28 497.19h1.2363v1.4883h-1.2363z" style=""/>
   <path d="m470.33 509.72v3.9609h-1.0781v-3.9258q0-0.93164-0.36328-1.3945-0.36328-0.46289-1.0898-0.46289-0.87304 0-1.377 0.55664-0.5039 0.55665-0.5039 1.5176v3.709h-1.084v-6.5625h1.084v1.0195q0.38671-0.5918 0.9082-0.88477 0.52734-0.29297 1.2129-0.29297 1.1309 0 1.7109 0.70313 0.58007 0.69726 0.58007 2.0566z" style=""/>
   <path d="m475.47 510.38q-1.3066 0-1.8106 0.29883t-0.50391 1.0195q0 0.57422 0.375 0.91406 0.38086 0.33399 1.0312 0.33399 0.89649 0 1.4356-0.63282 0.54492-0.63867 0.54492-1.6934v-0.24023zm2.1504-0.44531v3.7441h-1.0781v-0.9961q-0.36914 0.59766-0.91992 0.88477-0.55078 0.28125-1.3477 0.28125-1.0078 0-1.6055-0.5625-0.59179-0.56836-0.59179-1.5176 0-1.1074 0.73828-1.6699 0.74414-0.5625 2.2148-0.5625h1.5117v-0.10547q0-0.74414-0.49219-1.1484-0.48632-0.41015-1.3711-0.41015-0.5625 0-1.0957 0.13476-0.53321 0.13477-1.0254 0.4043v-0.99609q0.59179-0.22852 1.1484-0.33985 0.55664-0.11719 1.084-0.11719 1.4238 0 2.127 0.73829 0.70313 0.73828 0.70313 2.2383z" style=""/>
   <path d="m484.96 508.38q0.4043-0.72656 0.9668-1.0723 0.5625-0.34571 1.3242-0.34571 1.0254 0 1.582 0.72071 0.55664 0.71484 0.55664 2.0391v3.9609h-1.084v-3.9258q0-0.94336-0.33399-1.4004-0.33398-0.45704-1.0195-0.45704-0.83789 0-1.3242 0.55664-0.48633 0.55665-0.48633 1.5176v3.709h-1.084v-3.9258q0-0.94922-0.33398-1.4004-0.33399-0.45704-1.0312-0.45704-0.82618 0-1.3125 0.5625-0.48633 0.55664-0.48633 1.5117v3.709h-1.084v-6.5625h1.084v1.0195q0.36914-0.60352 0.88476-0.89063 0.51563-0.28711 1.2246-0.28711 0.71485 0 1.2129 0.36329 0.50391 0.36328 0.74414 1.0547z" style=""/>
   <path d="m497.16 510.13v0.52734h-4.957q0.0703 1.1133 0.66797 1.6992 0.60352 0.58008 1.6758 0.58008 0.6211 0 1.2012-0.15235 0.58594-0.15234 1.1602-0.45703v1.0195q-0.58008 0.2461-1.1894 0.375-0.60938 0.12891-1.2363 0.12891-1.5703 0-2.4902-0.91406-0.91406-0.91407-0.91406-2.4727 0-1.6113 0.86719-2.5547 0.87305-0.94922 2.3496-0.94922 1.3242 0 2.0918 0.85547 0.77343 0.84961 0.77343 2.3145zm-1.0781-0.31641q-0.0117-0.88477-0.49805-1.4121-0.48047-0.52734-1.2773-0.52734-0.90235 0-1.4473 0.50976-0.53906 0.50977-0.62109 1.4356z" style=""/>
   <path d="m503.11 507.31v1.0195q-0.45703-0.23438-0.94922-0.35156-0.49219-0.11719-1.0195-0.11719-0.80274 0-1.207 0.24609-0.39844 0.2461-0.39844 0.73828 0 0.375 0.28711 0.5918 0.28711 0.21094 1.1543 0.4043l0.36914 0.082q1.1484 0.24609 1.6289 0.69726 0.48633 0.44532 0.48633 1.248 0 0.91406-0.72656 1.4473-0.72071 0.5332-1.9863 0.5332-0.52734 0-1.1016-0.10547-0.56836-0.0996-1.2012-0.30469v-1.1133q0.59765 0.31055 1.1777 0.46875 0.58008 0.15235 1.1484 0.15235 0.76172 0 1.1719-0.25782 0.41016-0.26367 0.41016-0.73828 0-0.43945-0.29883-0.67383-0.29297-0.23437-1.2949-0.45117l-0.375-0.0879q-1.002-0.21094-1.4473-0.64453-0.44531-0.43945-0.44531-1.2012 0-0.92578 0.65625-1.4297t1.8633-0.50391q0.59766 0 1.125 0.0879 0.52735 0.0879 0.97266 0.26368z" style=""/>
   <path d="m510.8 510.13v0.52734h-4.957q0.0703 1.1133 0.66797 1.6992 0.60351 0.58008 1.6758 0.58008 0.62109 0 1.2012-0.15235 0.58594-0.15234 1.1602-0.45703v1.0195q-0.58007 0.2461-1.1894 0.375-0.60937 0.12891-1.2363 0.12891-1.5703 0-2.4902-0.91406-0.91406-0.91407-0.91406-2.4727 0-1.6113 0.86718-2.5547 0.87305-0.94922 2.3496-0.94922 1.3242 0 2.0918 0.85547 0.77344 0.84961 0.77344 2.3145zm-1.0781-0.31641q-0.0117-0.88477-0.49804-1.4121-0.48047-0.52734-1.2774-0.52734-0.90234 0-1.4473 0.50976-0.53907 0.50977-0.6211 1.4356z" style=""/>
   <path d="m516.37 508.12q-0.18164-0.10547-0.39843-0.15234-0.21094-0.0527-0.46875-0.0527-0.91407 0-1.4062 0.59766-0.48633 0.59179-0.48633 1.7051v3.457h-1.084v-6.5625h1.084v1.0195q0.33984-0.59766 0.88476-0.88477 0.54493-0.29297 1.3242-0.29297 0.11133 0 0.2461 0.0176 0.13476 0.0117 0.29882 0.041z" style=""/>
   <path d="m516.74 507.12h1.1426l2.0508 5.5078 2.0508-5.5078h1.1426l-2.4609 6.5625h-1.4648z" style=""/>
   <path d="m530.23 510.13v0.52734h-4.957q0.0703 1.1133 0.66797 1.6992 0.60352 0.58008 1.6758 0.58008 0.6211 0 1.2012-0.15235 0.58593-0.15234 1.1602-0.45703v1.0195q-0.58008 0.2461-1.1894 0.375-0.60938 0.12891-1.2363 0.12891-1.5703 0-2.4902-0.91406-0.91407-0.91407-0.91407-2.4727 0-1.6113 0.86719-2.5547 0.87305-0.94922 2.3496-0.94922 1.3242 0 2.0918 0.85547 0.77344 0.84961 0.77344 2.3145zm-1.0781-0.31641q-0.0117-0.88477-0.49805-1.4121-0.48047-0.52734-1.2773-0.52734-0.90234 0-1.4473 0.50976-0.53906 0.50977-0.62109 1.4356z" style=""/>
   <path d="m535.8 508.12q-0.18164-0.10547-0.39844-0.15234-0.21093-0.0527-0.46875-0.0527-0.91406 0-1.4062 0.59766-0.48632 0.59179-0.48632 1.7051v3.457h-1.084v-6.5625h1.084v1.0195q0.33984-0.59766 0.88476-0.88477 0.54492-0.29297 1.3242-0.29297 0.11133 0 0.24609 0.0176 0.13477 0.0117 0.29883 0.041z" style=""/>
  </g>
 </g>
 <g>
  <g transform="translate(8.0734 -13.933)" aria-label="198.41.0.4">
   <path d="m441.49 65.183h1.9336v-6.6738l-2.1035 0.42188v-1.0781l2.0918-0.42188h1.1836v7.752h1.9336v0.99609h-5.0391z"/>
   <path d="m448.96 65.997v-1.0781q0.44532 0.21094 0.90235 0.32226t0.89648 0.11133q1.1719 0 1.7871-0.78516 0.6211-0.79102 0.70899-2.3965-0.33985 0.50391-0.86133 0.77344-0.52149 0.26953-1.1543 0.26953-1.3125 0-2.0801-0.79102-0.76172-0.79688-0.76172-2.1738 0-1.3477 0.79688-2.1621 0.79687-0.81445 2.1211-0.81445 1.5176 0 2.3145 1.166 0.80273 1.1602 0.80273 3.375 0 2.0684-0.98437 3.3047-0.97852 1.2305-2.6367 1.2305-0.44532 0-0.90235-0.08789t-0.94922-0.26367zm2.3555-3.709q0.79688 0 1.2598-0.54492 0.46875-0.54492 0.46875-1.4941 0-0.94336-0.46875-1.4883-0.46289-0.55078-1.2598-0.55078-0.79687 0-1.2656 0.55078-0.46289 0.54492-0.46289 1.4883 0 0.94922 0.46289 1.4941 0.46875 0.54492 1.2656 0.54492z"/>
   <path d="m459.1 62.025q-0.84375 0-1.3301 0.45117-0.48046 0.45117-0.48046 1.2422 0 0.79102 0.48046 1.2422 0.48633 0.45117 1.3301 0.45117t1.3301-0.45117q0.48633-0.45703 0.48633-1.2422 0-0.79102-0.48633-1.2422-0.48047-0.45117-1.3301-0.45117zm-1.1836-0.50391q-0.76172-0.1875-1.1894-0.70898-0.42188-0.52148-0.42188-1.2715 0-1.0488 0.74414-1.6582 0.75-0.60938 2.0508-0.60938 1.3066 0 2.0508 0.60938t0.74414 1.6582q0 0.75-0.42773 1.2715-0.42187 0.52148-1.1777 0.70898 0.85546 0.19922 1.3301 0.7793 0.48047 0.58008 0.48047 1.418 0 1.2715-0.77929 1.9512-0.77344 0.67969-2.2207 0.67969-1.4473 0-2.2266-0.67969-0.77344-0.67969-0.77344-1.9512 0-0.83789 0.48047-1.418t1.3359-0.7793zm-0.43359-1.8691q0 0.67969 0.42187 1.0605 0.42773 0.38086 1.1953 0.38086 0.76172 0 1.1895-0.38086 0.43359-0.38086 0.43359-1.0605 0-0.67969-0.43359-1.0605-0.42774-0.38086-1.1895-0.38086-0.76758 0-1.1953 0.38086-0.42187 0.38086-0.42187 1.0605z"/>
   <path d="m464.21 64.691h1.2363v1.4883h-1.2363z"/>
   <path d="m471.28 58.462-2.9883 4.6699h2.9883zm-0.31054-1.0312h1.4883v5.7012h1.248v0.98438h-1.248v2.0625h-1.1777v-2.0625h-3.9492v-1.1426z"/>
   <path d="m475.87 65.183h1.9336v-6.6738l-2.1035 0.42188v-1.0781l2.0918-0.42188h1.1836v7.752h1.9336v0.99609h-5.0391z"/>
   <path d="m483.31 64.691h1.2363v1.4883h-1.2363z"/>
   <path d="m489.66 58.21q-0.91406 0-1.377 0.90234-0.45703 0.89648-0.45703 2.7012 0 1.7988 0.45703 2.7012 0.46289 0.89648 1.377 0.89648 0.91992 0 1.377-0.89648 0.46289-0.90234 0.46289-2.7012 0-1.8047-0.46289-2.7012-0.45704-0.90234-1.377-0.90234zm0-0.9375q1.4707 0 2.2441 1.166 0.7793 1.1602 0.7793 3.375 0 2.209-0.7793 3.375-0.77343 1.1602-2.2441 1.1602-1.4707 0-2.25-1.1602-0.77343-1.166-0.77343-3.375 0-2.2148 0.77343-3.375 0.7793-1.166 2.25-1.166z"/>
   <path d="m494.77 64.691h1.2363v1.4883h-1.2363z"/>
   <path d="m501.84 58.462-2.9883 4.6699h2.9883zm-0.31054-1.0312h1.4883v5.7012h1.248v0.98438h-1.248v2.0625h-1.1777v-2.0625h-3.9492v-1.1426z"/>
  </g>
  <g transform="translate(7.8273 -13.95)" aria-label="204.74.112.1">
   <path d="m442.99 117.2h4.1309v0.99609h-5.5547v-0.99609q0.67383-0.69727 1.834-1.8691 1.166-1.1777 1.4648-1.5176 0.56836-0.63867 0.79102-1.0781 0.22851-0.44532 0.22851-0.87305 0-0.69727-0.49219-1.1367-0.48632-0.43945-1.2715-0.43945-0.55664 0-1.1777 0.19336-0.61524 0.19336-1.3184 0.58593v-1.1953q0.71484-0.28711 1.3359-0.43359 0.6211-0.14649 1.1367-0.14649 1.3594 0 2.168 0.67969 0.8086 0.67969 0.8086 1.8164 0 0.53906-0.20508 1.0254-0.19922 0.48047-0.73242 1.1367-0.14649 0.16992-0.93165 0.98437-0.78515 0.80859-2.2148 2.2676z"/>
   <path d="m452.14 110.23q-0.91406 0-1.377 0.90235-0.45703 0.89648-0.45703 2.7012 0 1.7988 0.45703 2.7012 0.46289 0.89648 1.377 0.89648 0.91993 0 1.377-0.89648 0.46289-0.90234 0.46289-2.7012 0-1.8047-0.46289-2.7012-0.45703-0.90235-1.377-0.90235zm0-0.9375q1.4707 0 2.2442 1.166 0.77929 1.1602 0.77929 3.375 0 2.209-0.77929 3.375-0.77344 1.1602-2.2442 1.1602-1.4707 0-2.25-1.1602-0.77343-1.166-0.77343-3.375 0-2.2148 0.77343-3.375 0.7793-1.166 2.25-1.166z"/>
   <path d="m460.5 110.48-2.9883 4.6699h2.9883zm-0.31054-1.0312h1.4883v5.7012h1.248v0.98437h-1.248v2.0625h-1.1777v-2.0625h-3.9492v-1.1426z"/>
   <path d="m464.89 116.71h1.2363v1.4883h-1.2363z"/>
   <path d="m468.41 109.45h5.625v0.5039l-3.1758 8.2441h-1.2363l2.9883-7.752h-4.2012z"/>
   <path d="m479.6 110.48-2.9883 4.6699h2.9883zm-0.31055-1.0312h1.4883v5.7012h1.248v0.98437h-1.248v2.0625h-1.1777v-2.0625h-3.9492v-1.1426z"/>
   <path d="m483.99 116.71h1.2363v1.4883h-1.2363z"/>
   <path d="m488.02 117.2h1.9336v-6.6738l-2.1035 0.42188v-1.0781l2.0918-0.42187h1.1836v7.752h1.9336v0.99609h-5.0391z"/>
   <path d="m495.66 117.2h1.9336v-6.6738l-2.1035 0.42188v-1.0781l2.0918-0.42187h1.1836v7.752h1.9336v0.99609h-5.0391z"/>
   <path d="m504.11 117.2h4.1309v0.99609h-5.5547v-0.99609q0.67383-0.69727 1.834-1.8691 1.166-1.1777 1.4648-1.5176 0.56836-0.63867 0.79102-1.0781 0.22851-0.44532 0.22851-0.87305 0-0.69727-0.49219-1.1367-0.48632-0.43945-1.2715-0.43945-0.55664 0-1.1777 0.19336-0.61524 0.19336-1.3184 0.58593v-1.1953q0.71484-0.28711 1.3359-0.43359 0.6211-0.14649 1.1367-0.14649 1.3594 0 2.168 0.67969 0.8086 0.67969 0.8086 1.8164 0 0.53906-0.20508 1.0254-0.19922 0.48047-0.73242 1.1367-0.14649 0.16992-0.93165 0.98437-0.78515 0.80859-2.2148 2.2676z"/>
   <path d="m510.73 116.71h1.2363v1.4883h-1.2363z"/>
   <path d="m514.76 117.2h1.9336v-6.6738l-2.1035 0.42188v-1.0781l2.0918-0.42187h1.1836v7.752h1.9336v0.99609h-5.0391z"/>
  </g>
  <g transform="translate(7.8273 -13.95)" aria-label="207.142.131.234">
   <path d="m442.99 169.2h4.1309v0.9961h-5.5547v-0.9961q0.67383-0.69726 1.834-1.8691 1.166-1.1777 1.4648-1.5176 0.56836-0.63867 0.79102-1.0781 0.22851-0.44531 0.22851-0.87305 0-0.69726-0.49219-1.1367-0.48632-0.43945-1.2715-0.43945-0.55664 0-1.1777 0.19336-0.61524 0.19336-1.3184 0.58594v-1.1953q0.71484-0.28711 1.3359-0.43359 0.6211-0.14648 1.1367-0.14648 1.3594 0 2.168 0.67968 0.8086 0.67969 0.8086 1.8164 0 0.53906-0.20508 1.0254-0.19922 0.48047-0.73242 1.1367-0.14649 0.16992-0.93165 0.98437-0.78515 0.8086-2.2148 2.2676z"/>
   <path d="m452.14 162.23q-0.91406 0-1.377 0.90234-0.45703 0.89648-0.45703 2.7012 0 1.7988 0.45703 2.7012 0.46289 0.89649 1.377 0.89649 0.91993 0 1.377-0.89649 0.46289-0.90234 0.46289-2.7012 0-1.8047-0.46289-2.7012-0.45703-0.90234-1.377-0.90234zm0-0.9375q1.4707 0 2.2442 1.166 0.77929 1.1602 0.77929 3.375 0 2.209-0.77929 3.375-0.77344 1.1602-2.2442 1.1602-1.4707 0-2.25-1.1602-0.77343-1.166-0.77343-3.375 0-2.2148 0.77343-3.375 0.7793-1.166 2.25-1.166z"/>
   <path d="m456.95 161.45h5.625v0.5039l-3.1758 8.2442h-1.2363l2.9883-7.752h-4.2012z"/>
   <path d="m464.89 168.71h1.2363v1.4883h-1.2363z"/>
   <path d="m468.92 169.2h1.9336v-6.6738l-2.1035 0.42188v-1.0781l2.0918-0.42187h1.1836v7.752h1.9336v0.9961h-5.0391z"/>
   <path d="m479.6 162.48-2.9883 4.6699h2.9883zm-0.31055-1.0312h1.4883v5.7012h1.248v0.98438h-1.248v2.0625h-1.1777v-2.0625h-3.9492v-1.1426z"/>
   <path d="m485.01 169.2h4.1309v0.9961h-5.5547v-0.9961q0.67383-0.69726 1.834-1.8691 1.166-1.1777 1.4648-1.5176 0.56836-0.63867 0.79101-1.0781 0.22852-0.44531 0.22852-0.87305 0-0.69726-0.49219-1.1367-0.48633-0.43945-1.2715-0.43945-0.55664 0-1.1777 0.19336-0.61523 0.19336-1.3184 0.58594v-1.1953q0.71485-0.28711 1.3359-0.43359 0.6211-0.14648 1.1367-0.14648 1.3594 0 2.168 0.67968 0.80859 0.67969 0.80859 1.8164 0 0.53906-0.20508 1.0254-0.19921 0.48047-0.73242 1.1367-0.14648 0.16992-0.93164 0.98437-0.78515 0.8086-2.2148 2.2676z"/>
   <path d="m491.63 168.71h1.2363v1.4883h-1.2363z"/>
   <path d="m495.66 169.2h1.9336v-6.6738l-2.1035 0.42188v-1.0781l2.0918-0.42187h1.1836v7.752h1.9336v0.9961h-5.0391z"/>
   <path d="m506.68 165.48q0.84961 0.18164 1.3242 0.75586 0.48046 0.57422 0.48046 1.418 0 1.2949-0.89062 2.0039-0.89063 0.70899-2.5312 0.70899-0.55078 0-1.1367-0.11133-0.58008-0.10547-1.2012-0.32227v-1.1426q0.49219 0.2871 1.0781 0.43359 0.58594 0.14648 1.2246 0.14648 1.1133 0 1.6934-0.43945 0.58594-0.43945 0.58594-1.2773 0-0.77344-0.54492-1.207-0.53906-0.43946-1.5059-0.43946h-1.0195v-0.97265h1.0664q0.87305 0 1.3359-0.34571 0.46289-0.35156 0.46289-1.0078 0-0.67383-0.48047-1.0312-0.47461-0.36328-1.3652-0.36328-0.48633 0-1.043 0.10547t-1.2246 0.32812v-1.0547q0.67383-0.1875 1.2598-0.28125 0.59179-0.0937 1.1133-0.0937 1.3476 0 2.1328 0.61523 0.78516 0.60937 0.78516 1.6523 0 0.72657-0.41602 1.2305-0.41601 0.49805-1.1836 0.69141z"/>
   <path d="m510.94 169.2h1.9336v-6.6738l-2.1035 0.42188v-1.0781l2.0918-0.42187h1.1836v7.752h1.9336v0.9961h-5.0391z"/>
   <path d="m518.38 168.71h1.2363v1.4883h-1.2363z"/>
   <path d="m523.21 169.2h4.1309v0.9961h-5.5547v-0.9961q0.67382-0.69726 1.834-1.8691 1.166-1.1777 1.4648-1.5176 0.56836-0.63867 0.79102-1.0781 0.22851-0.44531 0.22851-0.87305 0-0.69726-0.49218-1.1367-0.48633-0.43945-1.2715-0.43945-0.55664 0-1.1777 0.19336-0.61524 0.19336-1.3184 0.58594v-1.1953q0.71484-0.28711 1.3359-0.43359 0.62109-0.14648 1.1367-0.14648 1.3594 0 2.168 0.67968 0.8086 0.67969 0.8086 1.8164 0 0.53906-0.20508 1.0254-0.19922 0.48047-0.73242 1.1367-0.14649 0.16992-0.93164 0.98437-0.78516 0.8086-2.2148 2.2676z"/>
   <path d="m533.42 165.48q0.84961 0.18164 1.3242 0.75586 0.48047 0.57422 0.48047 1.418 0 1.2949-0.89062 2.0039-0.89063 0.70899-2.5312 0.70899-0.55078 0-1.1367-0.11133-0.58008-0.10547-1.2012-0.32227v-1.1426q0.49218 0.2871 1.0781 0.43359 0.58594 0.14648 1.2246 0.14648 1.1133 0 1.6934-0.43945 0.58594-0.43945 0.58594-1.2773 0-0.77344-0.54492-1.207-0.53907-0.43946-1.5059-0.43946h-1.0195v-0.97265h1.0664q0.87305 0 1.3359-0.34571 0.46289-0.35156 0.46289-1.0078 0-0.67383-0.48047-1.0312-0.47461-0.36328-1.3652-0.36328-0.48633 0-1.043 0.10547t-1.2246 0.32812v-1.0547q0.67383-0.1875 1.2598-0.28125 0.5918-0.0937 1.1133-0.0937 1.3476 0 2.1328 0.61523 0.78515 0.60937 0.78515 1.6523 0 0.72657-0.41601 1.2305-0.41602 0.49805-1.1836 0.69141z"/>
   <path d="m540.73 162.48-2.9883 4.6699h2.9883zm-0.31055-1.0312h1.4883v5.7012h1.248v0.98438h-1.248v2.0625h-1.1777v-2.0625h-3.9492v-1.1426z"/>
  </g>
 </g>
 <g transform="translate(-95.958 -398.83)">
  <path d="m243.03 425.38c-53.738 0-97 6.69-97 15 0 8.2454 42.625 14.866 95.781 14.969-4.5934 8.9703-13.01 21.796-29.688 30.625 14.398-6.1704 32.357-20.479 42.812-30.594h0.0313c53.738 0 97-6.69 97-15 0-8.31-43.262-15-97-15h-11.938z" color="#000000" fill="#fff" fill-rule="evenodd" stroke="#000"/>
  <g aria-label='"Where&apos;s www.wikipedia.org?"'>
   <path d="m160.15 436.61v3.252h-0.99609v-3.252zm2.2148 0v3.252h-0.99609v-3.252z" style=""/>
   <path d="m163.93 436.61h1.1953l1.8398 7.3945 1.834-7.3945h1.3301l1.8398 7.3945 1.834-7.3945h1.2012l-2.1973 8.748h-1.4883l-1.8457-7.5938-1.8633 7.5938h-1.4883z" style=""/>
   <path d="m181.98 441.4v3.9609h-1.0781v-3.9258q0-0.93164-0.36328-1.3945-0.36329-0.46289-1.0898-0.46289-0.87304 0-1.377 0.55664t-0.50391 1.5176v3.709h-1.084v-9.1172h1.084v3.5742q0.38672-0.59179 0.90821-0.88476 0.52734-0.29297 1.2129-0.29297 1.1309 0 1.7109 0.70312 0.58008 0.69727 0.58008 2.0566z" style=""/>
   <path d="m189.75 441.81v0.52735h-4.957q0.0703 1.1133 0.66797 1.6992 0.60352 0.58008 1.6758 0.58008 0.6211 0 1.2012-0.15234 0.58594-0.15235 1.1602-0.45703v1.0195q-0.58008 0.24609-1.1894 0.375-0.60938 0.1289-1.2363 0.1289-1.5703 0-2.4902-0.91406-0.91406-0.91406-0.91406-2.4726 0-1.6113 0.86719-2.5547 0.87305-0.94922 2.3496-0.94922 1.3242 0 2.0918 0.85547 0.77343 0.84961 0.77343 2.3144zm-1.0781-0.3164q-0.0117-0.88477-0.49805-1.4121-0.48047-0.52735-1.2773-0.52735-0.90235 0-1.4473 0.50977-0.53906 0.50976-0.62109 1.4355z" style=""/>
   <path d="m195.32 439.81q-0.18164-0.10547-0.39844-0.15235-0.21094-0.0527-0.46875-0.0527-0.91406 0-1.4062 0.59765-0.48633 0.5918-0.48633 1.7051v3.457h-1.084v-6.5625h1.084v1.0195q0.33985-0.59765 0.88477-0.88476 0.54492-0.29297 1.3242-0.29297 0.11133 0 0.24609 0.0176 0.13477 0.0117 0.29883 0.041z" style=""/>
   <path d="m201.82 441.81v0.52735h-4.957q0.0703 1.1133 0.66797 1.6992 0.60352 0.58008 1.6758 0.58008 0.6211 0 1.2012-0.15234 0.58593-0.15235 1.1602-0.45703v1.0195q-0.58008 0.24609-1.1894 0.375-0.60938 0.1289-1.2363 0.1289-1.5703 0-2.4902-0.91406-0.91407-0.91406-0.91407-2.4726 0-1.6113 0.86719-2.5547 0.87305-0.94922 2.3496-0.94922 1.3242 0 2.0918 0.85547 0.77344 0.84961 0.77344 2.3144zm-1.0781-0.3164q-0.0117-0.88477-0.49805-1.4121-0.48047-0.52735-1.2773-0.52735-0.90234 0-1.4473 0.50977-0.53906 0.50976-0.62109 1.4355z" style=""/>
   <path d="m204.61 436.61v3.252h-0.9961v-3.252z" style=""/>
   <path d="m211.08 438.99v1.0195q-0.45703-0.23437-0.94922-0.35156t-1.0195-0.11719q-0.80274 0-1.207 0.2461-0.39844 0.24609-0.39844 0.73828 0 0.375 0.28711 0.5918 0.28711 0.21093 1.1543 0.40429l0.36914 0.082q1.1484 0.2461 1.6289 0.69727 0.48633 0.44531 0.48633 1.248 0 0.91406-0.72656 1.4473-0.72071 0.5332-1.9863 0.5332-0.52734 0-1.1016-0.10546-0.56836-0.0996-1.2012-0.30469v-1.1133q0.59765 0.31054 1.1777 0.46875 0.58008 0.15234 1.1484 0.15234 0.76172 0 1.1719-0.25781 0.41016-0.26367 0.41016-0.73828 0-0.43946-0.29883-0.67383-0.29297-0.23438-1.2949-0.45117l-0.375-0.0879q-1.002-0.21094-1.4473-0.64453-0.44531-0.43946-0.44531-1.2012 0-0.92578 0.65625-1.4297 0.65625-0.50391 1.8633-0.50391 0.59766 0 1.125 0.0879 0.52735 0.0879 0.97266 0.26367z" style=""/>
   <path d="m216.35 438.8h1.0781l1.3477 5.1211 1.3418-5.1211h1.2715l1.3476 5.1211 1.3418-5.1211h1.0781l-1.7168 6.5625h-1.2715l-1.4121-5.3789-1.418 5.3789h-1.2715z" style=""/>
   <path d="m226.17 438.8h1.0781l1.3477 5.1211 1.3418-5.1211h1.2715l1.3477 5.1211 1.3418-5.1211h1.0781l-1.7168 6.5625h-1.2715l-1.4121-5.3789-1.418 5.3789h-1.2715z" style=""/>
   <path d="m235.99 438.8h1.0781l1.3476 5.1211 1.3418-5.1211h1.2715l1.3477 5.1211 1.3418-5.1211h1.0781l-1.7168 6.5625h-1.2715l-1.4121-5.3789-1.418 5.3789h-1.2715z" style=""/>
   <path d="m245.49 443.87h1.2363v1.4883h-1.2363z" style=""/>
   <path d="m248.53 438.8h1.0781l1.3476 5.1211 1.3418-5.1211h1.2715l1.3476 5.1211 1.3418-5.1211h1.0781l-1.7168 6.5625h-1.2715l-1.4121-5.3789-1.418 5.3789h-1.2715z" style=""/>
   <path d="m258.97 438.8h1.0781v6.5625h-1.0781zm0-2.5547h1.0781v1.3652h-1.0781z" style=""/>
   <path d="m262.26 436.24h1.084v5.3848l3.2168-2.8301h1.377l-3.4805 3.0703 3.627 3.4922h-1.4062l-3.334-3.2051v3.2051h-1.084z" style=""/>
   <path d="m269.26 438.8h1.0781v6.5625h-1.0781zm0-2.5547h1.0781v1.3652h-1.0781z" style=""/>
   <path d="m273.63 444.38v3.4805h-1.084v-9.0586h1.084v0.9961q0.33984-0.58594 0.85546-0.86719 0.52149-0.28711 1.2422-0.28711 1.1953 0 1.9394 0.94922 0.75 0.94922 0.75 2.4961 0 1.5469-0.75 2.4961-0.74414 0.94921-1.9394 0.94921-0.7207 0-1.2422-0.28125-0.51562-0.2871-0.85546-0.87304zm3.668-2.291q0-1.1894-0.49218-1.8633-0.48633-0.67969-1.3418-0.67969t-1.3477 0.67969q-0.48632 0.67383-0.48632 1.8633 0 1.1895 0.48632 1.8691 0.49219 0.67383 1.3477 0.67383t1.3418-0.67383q0.49218-0.67968 0.49218-1.8691z" style=""/>
   <path d="m285.82 441.81v0.52735h-4.957q0.0703 1.1133 0.66797 1.6992 0.60352 0.58008 1.6758 0.58008 0.6211 0 1.2012-0.15234 0.58593-0.15235 1.1602-0.45703v1.0195q-0.58008 0.24609-1.1894 0.375-0.60938 0.1289-1.2363 0.1289-1.5703 0-2.4902-0.91406-0.91407-0.91406-0.91407-2.4726 0-1.6113 0.86719-2.5547 0.87305-0.94922 2.3496-0.94922 1.3242 0 2.0918 0.85547 0.77344 0.84961 0.77344 2.3144zm-1.0781-0.3164q-0.0117-0.88477-0.49805-1.4121-0.48047-0.52735-1.2773-0.52735-0.90234 0-1.4473 0.50977-0.53906 0.50976-0.62109 1.4355z" style=""/>
   <path d="m291.91 439.8v-3.5508h1.0781v9.1172h-1.0781v-0.98437q-0.33985 0.58594-0.86133 0.87304-0.51563 0.28125-1.2422 0.28125-1.1894 0-1.9394-0.94921-0.74414-0.94922-0.74414-2.4961 0-1.5469 0.74414-2.4961 0.75-0.94922 1.9394-0.94922 0.72656 0 1.2422 0.28711 0.52148 0.28125 0.86133 0.86719zm-3.6738 2.291q0 1.1895 0.48633 1.8691 0.49218 0.67383 1.3476 0.67383t1.3477-0.67383q0.49219-0.67968 0.49219-1.8691 0-1.1894-0.49219-1.8633-0.49219-0.67969-1.3477-0.67969t-1.3476 0.67969q-0.48633 0.67383-0.48633 1.8633z" style=""/>
   <path d="m295.21 438.8h1.0781v6.5625h-1.0781zm0-2.5547h1.0781v1.3652h-1.0781z" style=""/>
   <path d="m301.52 442.06q-1.3066 0-1.8106 0.29883-0.5039 0.29883-0.5039 1.0195 0 0.57422 0.375 0.91407 0.38086 0.33398 1.0312 0.33398 0.89648 0 1.4355-0.63281 0.54493-0.63867 0.54493-1.6934v-0.24024zm2.1504-0.44531v3.7441h-1.0781v-0.99609q-0.36914 0.59766-0.91993 0.88476-0.55078 0.28125-1.3476 0.28125-1.0078 0-1.6055-0.5625-0.5918-0.56835-0.5918-1.5176 0-1.1074 0.73828-1.6699 0.74414-0.5625 2.2148-0.5625h1.5117v-0.10546q0-0.74414-0.49219-1.1484-0.48633-0.41016-1.3711-0.41016-0.5625 0-1.0957 0.13477-0.5332 0.13476-1.0254 0.40429v-0.99609q0.5918-0.22851 1.1484-0.33984 0.55664-0.11719 1.084-0.11719 1.4238 0 2.127 0.73828 0.70312 0.73828 0.70312 2.2383z" style=""/>
   <path d="m306.05 443.87h1.2363v1.4883h-1.2363z" style=""/>
   <path d="m312.26 439.56q-0.86719 0-1.3711 0.67969-0.5039 0.67383-0.5039 1.8516 0 1.1777 0.49804 1.8574 0.50391 0.67383 1.377 0.67383 0.86132 0 1.3652-0.67969 0.50391-0.67968 0.50391-1.8516 0-1.166-0.50391-1.8457-0.50391-0.68555-1.3652-0.68555zm0-0.91406q1.4062 0 2.209 0.91406t0.80273 2.5312q0 1.6113-0.80273 2.5312-0.80273 0.91406-2.209 0.91406-1.4121 0-2.2148-0.91406-0.79687-0.91992-0.79687-2.5312 0-1.6172 0.79687-2.5312 0.80274-0.91406 2.2148-0.91406z" style=""/>
   <path d="m320.86 439.81q-0.18164-0.10547-0.39844-0.15235-0.21094-0.0527-0.46875-0.0527-0.91406 0-1.4062 0.59765-0.48633 0.5918-0.48633 1.7051v3.457h-1.084v-6.5625h1.084v1.0195q0.33985-0.59765 0.88477-0.88476 0.54492-0.29297 1.3242-0.29297 0.11133 0 0.24609 0.0176 0.13477 0.0117 0.29883 0.041z" style=""/>
   <path d="m326.11 442q0-1.1719-0.48633-1.8164-0.48047-0.64453-1.3535-0.64453-0.86718 0-1.3535 0.64453-0.48047 0.64454-0.48047 1.8164 0 1.166 0.48047 1.8106 0.48633 0.64453 1.3535 0.64453 0.87305 0 1.3535-0.64453 0.48633-0.64453 0.48633-1.8106zm1.0781 2.543q0 1.6758-0.74414 2.4902-0.74414 0.82032-2.2793 0.82032-0.56836 0-1.0723-0.0879-0.50391-0.082-0.97852-0.25782v-1.0488q0.47461 0.25781 0.9375 0.38085 0.4629 0.12305 0.94336 0.12305 1.0606 0 1.5879-0.55664 0.52735-0.55078 0.52735-1.6699v-0.5332q-0.33399 0.58007-0.85547 0.86718t-1.248 0.28711q-1.207 0-1.9453-0.91992t-0.73828-2.4375q0-1.5234 0.73828-2.4434t1.9453-0.91992q0.72657 0 1.248 0.28711t0.85547 0.86719v-0.9961h1.0781z" style=""/>
   <path d="m330.56 443.87h1.1895v1.4883h-1.1895zm1.1543-0.86133h-1.1191v-0.90234q0-0.5918 0.16406-0.97266t0.69141-0.88476l0.52734-0.52149q0.33399-0.31054 0.48047-0.58593 0.15234-0.27539 0.15234-0.5625 0-0.52149-0.38671-0.84375-0.38086-0.32227-1.0137-0.32227-0.46289 0-0.99023 0.20508-0.52149 0.20508-1.0898 0.59765v-1.1016q0.55078-0.33398 1.1133-0.49804 0.56836-0.16407 1.1719-0.16407 1.0781 0 1.7285 0.56836 0.65625 0.56836 0.65625 1.5 0 0.44531-0.21094 0.84961-0.21094 0.39844-0.73828 0.90235l-0.51563 0.5039q-0.27539 0.27539-0.39257 0.4336-0.11133 0.15234-0.15821 0.29882-0.0351 0.12305-0.0527 0.29883t-0.0176 0.48047z" style=""/>
   <path d="m336.8 436.61v3.252h-0.9961v-3.252zm2.2148 0v3.252h-0.99609v-3.252z" style=""/>
  </g>
 </g>
 <path d="m143.04 129.57s93.338 15.556 120.21 18.385c26.87 2.8284 53.74-9.8995 53.74-9.8995s-2.8284 2.8284-36.77 2.8284c-33.941 0-141.42-29.698-141.42-29.698s59.397 5.6569 107.48 5.6569 73.539-24.042 73.539-24.042-5.6569 2.8284-41.012 7.0711c-35.355 4.2426-140.01 1.4142-140.01 1.4142s65.054-9.8995 114.55-19.799c49.497-9.8995 63.64-28.284 63.64-28.284s-137.18 21.213-181.02 39.598" fill="none" marker-start="url(#Arrow1Lstart)" stroke="#000" stroke-width="1.0016"/>
 <g transform="matrix(.78618 0 0 .78618 24.575 -396.18)">
  <path transform="translate(39.598 -31.113)" d="m252.44 618.91a12.728 12.728 0 1 1-25.456 0 12.728 12.728 0 1 1 25.456 0z" color="#000000" fill="#fff" fill-rule="evenodd" stroke="#000"/>
  <g aria-label="1">
   <path d="m276.81 591.17h1.9336v-6.6738l-2.1035 0.42188v-1.0781l2.0918-0.42187h1.1836v7.752h1.9336v0.99609h-5.0391z" style=""/>
  </g>
 </g>
 <g transform="matrix(.78618 0 0 .78618 -12.515 -364.46)">
  <path transform="translate(77.782 -28.284)" d="m252.44 618.91a12.728 12.728 0 1 1-25.456 0 12.728 12.728 0 1 1 25.456 0z" color="#000000" fill="#fff" fill-rule="evenodd" stroke="#000"/>
  <g aria-label="2">
   <path d="m315.9 594.08h4.1309v0.99609h-5.5547v-0.99609q0.67383-0.69726 1.834-1.8691 1.166-1.1777 1.4648-1.5176 0.56836-0.63867 0.79101-1.0781 0.22852-0.44532 0.22852-0.87305 0-0.69727-0.49219-1.1367-0.48633-0.43945-1.2715-0.43945-0.55664 0-1.1777 0.19336-0.61523 0.19336-1.3184 0.58594v-1.1953q0.71485-0.28711 1.3359-0.43359 0.62109-0.14649 1.1367-0.14649 1.3594 0 2.168 0.67969 0.80859 0.67969 0.80859 1.8164 0 0.53906-0.20508 1.0254-0.19922 0.48047-0.73242 1.1367-0.14648 0.16992-0.93164 0.98437-0.78516 0.8086-2.2148 2.2676z" style=""/>
  </g>
 </g>
 <g transform="matrix(.78618 0 0 .78618 -63.348 -338.91)">
  <path transform="translate(124.45 -21.213)" d="m252.44 618.91a12.728 12.728 0 1 1-25.456 0 12.728 12.728 0 1 1 25.456 0z" color="#000000" fill="#fff" fill-rule="evenodd" stroke="#000"/>
  <g aria-label="3">
   <path d="m365.18 597.34q0.8496 0.18164 1.3242 0.75586 0.48047 0.57422 0.48047 1.418 0 1.2949-0.89062 2.0039-0.89063 0.70898-2.5312 0.70898-0.55078 0-1.1367-0.11133-0.58008-0.10547-1.2012-0.32226v-1.1426q0.49218 0.28711 1.0781 0.43359 0.58594 0.14649 1.2246 0.14649 1.1133 0 1.6934-0.43946 0.58594-0.43945 0.58594-1.2773 0-0.77344-0.54492-1.207-0.53907-0.43945-1.5059-0.43945h-1.0195v-0.97266h1.0664q0.87305 0 1.3359-0.3457 0.46289-0.35157 0.46289-1.0078 0-0.67382-0.48047-1.0312-0.47461-0.36328-1.3652-0.36328-0.48633 0-1.043 0.10547t-1.2246 0.32813v-1.0547q0.67383-0.1875 1.2598-0.28125 0.5918-0.0937 1.1133-0.0937 1.3476 0 2.1328 0.61523 0.78515 0.60938 0.78515 1.6524 0 0.72656-0.41601 1.2305-0.41602 0.49804-1.1836 0.6914z" style=""/>
  </g>
 </g>
 <g transform="translate(17.179 -557.22)">
  <rect x="242.33" y="620.19" width="112.14" height="15.818" rx="97" ry="15" color="#000000" fill="#fff" stroke="#000"/>
  <g transform="translate(-1.1302 -.49201)" color="#000000" stroke-width="1px" style="text-decoration-line:none;text-indent:0;text-transform:none" aria-label='"Try 204.74.112.1"'>
   <path d="m261 625.55v2.2628h-0.69311v-2.2628zm1.5412 0v2.2628h-0.69311v-2.2628z"/>
   <path d="m263.33 625.55h5.1494v0.69311h-2.1609v5.394h-0.82766v-5.394h-2.1609z"/>
   <path d="m270.67 627.77q-0.12639-0.0734-0.27724-0.106-0.14678-0.0367-0.32617-0.0367-0.63603 0-0.97851 0.41587-0.3384 0.41179-0.3384 1.1864v2.4055h-0.75427v-4.5664h0.75427v0.70942q0.23647-0.41586 0.61564-0.61564 0.37918-0.20386 0.92143-0.20386 0.0775 0 0.17124 0.0122 0.0938 8e-3 0.20794 0.0285z"/>
   <path d="m273.37 632.06q-0.31801 0.81542-0.61972 1.0641-0.30171 0.2487-0.80727 0.2487h-0.59934v-0.62787h0.44033q0.30986 0 0.4811-0.14678t0.37918-0.69311l0.13454-0.34248-1.8469-4.493h0.79504l1.427 3.5716 1.427-3.5716h0.79504z"/>
   <path d="m279.88 630.94h2.8744v0.69311h-3.8651v-0.69311q0.46887-0.48518 1.2761-1.3006 0.81135-0.8195 1.0193-1.056 0.39549-0.44441 0.55042-0.7502 0.159-0.30986 0.159-0.60749 0-0.48518-0.34247-0.79096-0.33841-0.30578-0.88474-0.30578-0.38733 0-0.8195 0.13454-0.4281 0.13455-0.91736 0.40771v-0.83173q0.49741-0.19978 0.92959-0.30171 0.43217-0.10193 0.79096-0.10193 0.94589 0 1.5085 0.47295 0.56264 0.47295 0.56264 1.2639 0 0.3751-0.1427 0.7135-0.13862 0.33432-0.50964 0.79096-0.10193 0.11824-0.64826 0.68496-0.54634 0.56264-1.5412 1.5778z"/>
   <path d="m286.25 626.09q-0.63604 0-0.95813 0.62788-0.31801 0.6238-0.31801 1.8796 0 1.2517 0.31801 1.8796 0.32209 0.6238 0.95813 0.6238 0.64011 0 0.95812-0.6238 0.32209-0.62787 0.32209-1.8796 0-1.2558-0.32209-1.8796-0.31801-0.62788-0.95812-0.62788zm0-0.65234q1.0234 0 1.5615 0.81135 0.54225 0.80727 0.54225 2.3484 0 1.5371-0.54225 2.3484-0.53818 0.80727-1.5615 0.80727t-1.5656-0.80727q-0.53818-0.81135-0.53818-2.3484 0-1.5412 0.53818-2.3484 0.54226-0.81135 1.5656-0.81135z"/>
   <path d="m292.07 626.26-2.0793 3.2495h2.0793zm-0.21609-0.71757h1.0356v3.967h0.86843v0.68496h-0.86843v1.4352h-0.8195v-1.4352h-2.748v-0.79504z"/>
   <path d="m295.12 630.6h0.86027v1.0356h-0.86027z"/>
   <path d="m297.57 625.55h3.914v0.35063l-2.2098 5.7365h-0.86027l2.0793-5.394h-2.9233z"/>
   <path d="m305.36 626.26-2.0793 3.2495h2.0793zm-0.21608-0.71757h1.0356v3.967h0.86843v0.68496h-0.86843v1.4352h-0.81951v-1.4352h-2.748v-0.79504z"/>
   <path d="m308.41 630.6h0.86028v1.0356h-0.86028z"/>
   <path d="m311.21 630.94h1.3454v-4.6438l-1.4637 0.29355v-0.75019l1.4555-0.29355h0.82358v5.394h1.3454v0.69311h-3.5063z"/>
   <path d="m316.53 630.94h1.3455v-4.6438l-1.4637 0.29355v-0.75019l1.4555-0.29355h0.82358v5.394h1.3454v0.69311h-3.5063z"/>
   <path d="m322.41 630.94h2.8744v0.69311h-3.8651v-0.69311q0.46887-0.48518 1.2761-1.3006 0.81135-0.8195 1.0193-1.056 0.39548-0.44441 0.55041-0.7502 0.15901-0.30986 0.15901-0.60749 0-0.48518-0.34248-0.79096-0.3384-0.30578-0.88474-0.30578-0.38732 0-0.8195 0.13454-0.4281 0.13455-0.91735 0.40771v-0.83173q0.49741-0.19978 0.92958-0.30171 0.43218-0.10193 0.79097-0.10193 0.94589 0 1.5085 0.47295 0.56265 0.47295 0.56265 1.2639 0 0.3751-0.1427 0.7135-0.13863 0.33432-0.50964 0.79096-0.10193 0.11824-0.64827 0.68496-0.54633 0.56264-1.5412 1.5778z"/>
   <path d="m327.02 630.6h0.86028v1.0356h-0.86028z"/>
   <path d="m329.82 630.94h1.3454v-4.6438l-1.4637 0.29355v-0.75019l1.4555-0.29355h0.82358v5.394h1.3454v0.69311h-3.5063z"/>
   <path d="m335.6 625.55v2.2628h-0.69311v-2.2628zm1.5412 0v2.2628h-0.69311v-2.2628z"/>
  </g>
 </g>
 <g transform="translate(-73.331 -513.38)">
  <rect x="313.75" y="623.72" width="112.14" height="15.818" rx="97" ry="15" color="#000000" fill="#fff" stroke="#000"/>
  <g color="#000000" stroke-width="1px" style="text-decoration-line:none;text-indent:0;text-transform:none" aria-label='"Try 207.142.131.234"'>
   <path d="m324.64 628.37v2.2628h-0.69311v-2.2628zm1.5412 0v2.2628h-0.69312v-2.2628z" style=""/>
   <path d="m326.97 628.37h5.1494v0.69311h-2.1609v5.394h-0.82766v-5.394h-2.1609z" style=""/>
   <path d="m334.31 630.6q-0.12639-0.0734-0.27724-0.106-0.14678-0.0367-0.32617-0.0367-0.63604 0-0.97851 0.41587-0.33841 0.41179-0.33841 1.1864v2.4055h-0.75426v-4.5664h0.75426v0.70942q0.23648-0.41586 0.61565-0.61564 0.37917-0.20386 0.92143-0.20386 0.0775 0 0.17124 0.0122 0.0938 8e-3 0.20793 0.0285z" style=""/>
   <path d="m337.01 634.89q-0.31801 0.81542-0.61972 1.0641-0.30171 0.2487-0.80727 0.2487h-0.59934v-0.62787h0.44033q0.30986 0 0.4811-0.14678t0.37917-0.69311l0.13455-0.34248-1.8469-4.493h0.79504l1.427 3.5716 1.427-3.5716h0.79504z" style=""/>
   <path d="m343.52 633.77h2.8744v0.69311h-3.8651v-0.69311q0.46887-0.48518 1.2761-1.3006 0.81135-0.8195 1.0193-1.056 0.39548-0.44441 0.55041-0.7502 0.15901-0.30986 0.15901-0.60749 0-0.48518-0.34248-0.79096-0.3384-0.30578-0.88473-0.30578-0.38733 0-0.81951 0.13454-0.42809 0.13455-0.91735 0.40771v-0.83173q0.49741-0.19978 0.92959-0.30171 0.43217-0.10193 0.79096-0.10193 0.94589 0 1.5085 0.47295 0.56264 0.47295 0.56264 1.2639 0 0.3751-0.1427 0.7135-0.13862 0.33432-0.50964 0.79096-0.10193 0.11824-0.64826 0.68496-0.54634 0.56264-1.5412 1.5778z" style=""/>
   <path d="m349.89 628.92q-0.63603 0-0.95812 0.62788-0.31802 0.6238-0.31802 1.8796 0 1.2517 0.31802 1.8796 0.32209 0.6238 0.95812 0.6238 0.64011 0 0.95813-0.6238 0.32209-0.62787 0.32209-1.8796 0-1.2558-0.32209-1.8796-0.31802-0.62788-0.95813-0.62788zm0-0.65234q1.0234 0 1.5615 0.81135 0.54226 0.80727 0.54226 2.3484 0 1.5371-0.54226 2.3484-0.53818 0.80727-1.5615 0.80727t-1.5656-0.80727q-0.53818-0.81135-0.53818-2.3484 0-1.5412 0.53818-2.3484 0.54225-0.81135 1.5656-0.81135z" style=""/>
   <path d="m353.24 628.37h3.914v0.35063l-2.2098 5.7365h-0.86027l2.0793-5.394h-2.9233z" style=""/>
   <path d="m358.76 633.43h0.86027v1.0356h-0.86027z" style=""/>
   <path d="m361.56 633.77h1.3454v-4.6438l-1.4637 0.29355v-0.75019l1.4555-0.29355h0.82358v5.394h1.3454v0.69311h-3.5063z" style=""/>
   <path d="m369 629.09-2.0793 3.2495h2.0793zm-0.21609-0.71757h1.0356v3.967h0.86843v0.68496h-0.86843v1.4352h-0.8195v-1.4352h-2.748v-0.79504z" style=""/>
   <path d="m372.76 633.77h2.8744v0.69311h-3.8651v-0.69311q0.46887-0.48518 1.2761-1.3006 0.81135-0.8195 1.0193-1.056 0.39548-0.44441 0.55041-0.7502 0.15901-0.30986 0.15901-0.60749 0-0.48518-0.34248-0.79096-0.3384-0.30578-0.88473-0.30578-0.38733 0-0.81951 0.13454-0.42809 0.13455-0.91735 0.40771v-0.83173q0.49741-0.19978 0.92958-0.30171 0.43218-0.10193 0.79097-0.10193 0.94589 0 1.5085 0.47295 0.56265 0.47295 0.56265 1.2639 0 0.3751-0.1427 0.7135-0.13862 0.33432-0.50964 0.79096-0.10193 0.11824-0.64827 0.68496-0.54633 0.56264-1.5412 1.5778z" style=""/>
   <path d="m377.37 633.43h0.86028v1.0356h-0.86028z" style=""/>
   <path d="m380.17 633.77h1.3454v-4.6438l-1.4637 0.29355v-0.75019l1.4555-0.29355h0.82358v5.394h1.3454v0.69311h-3.5063z" style=""/>
   <path d="m387.84 631.18q0.59118 0.12639 0.92143 0.52595 0.33432 0.39956 0.33432 0.98666 0 0.90105-0.61972 1.3944t-1.7613 0.49333q-0.38325 0-0.79096-0.0775-0.40364-0.0734-0.83581-0.22424v-0.79504q0.34248 0.19978 0.75019 0.3017 0.40771 0.10193 0.85212 0.10193 0.77465 0 1.1783-0.30578 0.40771-0.30579 0.40771-0.88882 0-0.53818-0.37917-0.83988-0.3751-0.30579-1.0478-0.30579h-0.70942v-0.6768h0.74203q0.60749 0 0.92959-0.24055 0.32209-0.24463 0.32209-0.70127 0-0.46887-0.33432-0.71757-0.33025-0.25278-0.94997-0.25278-0.33841 0-0.72573 0.0734-0.38733 0.0734-0.85212 0.22832v-0.73388q0.46887-0.13047 0.87658-0.1957 0.41179-0.0652 0.77465-0.0652 0.93774 0 1.4841 0.4281 0.54633 0.42402 0.54633 1.1498 0 0.50557-0.28947 0.8562-0.28948 0.34655-0.82358 0.4811z" style=""/>
   <path d="m390.8 633.77h1.3454v-4.6438l-1.4637 0.29355v-0.75019l1.4555-0.29355h0.82358v5.394h1.3454v0.69311h-3.5063z" style=""/>
   <path d="m395.98 633.43h0.86028v1.0356h-0.86028z" style=""/>
   <path d="m399.35 633.77h2.8744v0.69311h-3.8651v-0.69311q0.46887-0.48518 1.2761-1.3006 0.81135-0.8195 1.0193-1.056 0.39548-0.44441 0.55041-0.7502 0.15901-0.30986 0.15901-0.60749 0-0.48518-0.34248-0.79096-0.3384-0.30578-0.88473-0.30578-0.38733 0-0.81951 0.13454-0.42809 0.13455-0.91735 0.40771v-0.83173q0.49741-0.19978 0.92959-0.30171 0.43217-0.10193 0.79096-0.10193 0.94589 0 1.5085 0.47295 0.56264 0.47295 0.56264 1.2639 0 0.3751-0.1427 0.7135-0.13862 0.33432-0.50964 0.79096-0.10193 0.11824-0.64827 0.68496-0.54633 0.56264-1.5412 1.5778z" style=""/>
   <path d="m406.45 631.18q0.59118 0.12639 0.92143 0.52595 0.33432 0.39956 0.33432 0.98666 0 0.90105-0.61972 1.3944t-1.7613 0.49333q-0.38325 0-0.79096-0.0775-0.40364-0.0734-0.83581-0.22424v-0.79504q0.34247 0.19978 0.75019 0.3017 0.40771 0.10193 0.85212 0.10193 0.77465 0 1.1783-0.30578 0.40771-0.30579 0.40771-0.88882 0-0.53818-0.37917-0.83988-0.3751-0.30579-1.0478-0.30579h-0.70942v-0.6768h0.74204q0.60749 0 0.92959-0.24055 0.32209-0.24463 0.32209-0.70127 0-0.46887-0.33432-0.71757-0.33025-0.25278-0.94998-0.25278-0.3384 0-0.72572 0.0734-0.38733 0.0734-0.85212 0.22832v-0.73388q0.46887-0.13047 0.87658-0.1957 0.41179-0.0652 0.77465-0.0652 0.93774 0 1.4841 0.4281 0.54633 0.42402 0.54633 1.1498 0 0.50557-0.28947 0.8562-0.28948 0.34655-0.82358 0.4811z" style=""/>
   <path d="m411.53 629.09-2.0793 3.2495h2.0793zm-0.21608-0.71757h1.0356v3.967h0.86843v0.68496h-0.86843v1.4352h-0.81951v-1.4352h-2.748v-0.79504z" style=""/>
   <path d="m415.19 628.37v2.2628h-0.69311v-2.2628zm1.5412 0v2.2628h-0.69311v-2.2628z" style=""/>
  </g>
 </g>
 <g transform="translate(-95.251 -478.02)">
  <rect x="313.75" y="623.72" width="112.14" height="15.818" rx="97" ry="15" color="#000000" fill="#fff" stroke="#000"/>
  <g transform="translate(1.9767 -.46512)" color="#000000" stroke-width="1px" style="text-decoration-line:none;text-indent:0;text-transform:none" aria-label='"It&apos;s at xxx.xx.xx.xxx"'>
   <path d="m324.64 628.37v2.2628h-0.69311v-2.2628zm1.5412 0v2.2628h-0.69312v-2.2628z"/>
   <path d="m327.82 628.37h0.82358v6.0872h-0.82358z"/>
   <path d="m330.99 628.6v1.2965h1.5452v0.58303h-1.5452v2.4789q0 0.55856 0.15086 0.71757 0.15493 0.15901 0.6238 0.15901h0.77057v0.62788h-0.77057q-0.86843 0-1.1987-0.3221-0.33025-0.32617-0.33025-1.1824v-2.4789h-0.55041v-0.58303h0.55041v-1.2965z"/>
   <path d="m334.23 628.37v2.2628h-0.69312v-2.2628z"/>
   <path d="m338.73 630.03v0.70942q-0.31801-0.16309-0.66049-0.24463-0.34248-0.0815-0.70942-0.0815-0.55857 0-0.83989 0.17124-0.27724 0.17124-0.27724 0.51372 0 0.26093 0.19978 0.41179 0.19977 0.14677 0.80319 0.28132l0.25686 0.0571q0.79912 0.17124 1.1334 0.48518 0.3384 0.30986 0.3384 0.86842 0 0.63604-0.50556 1.0071-0.50149 0.37101-1.3822 0.37101-0.36694 0-0.7665-0.0734-0.39548-0.0693-0.83581-0.21202v-0.77465q0.41587 0.21609 0.8195 0.32617 0.40364 0.10601 0.79912 0.10601 0.53003 0 0.81543-0.1794 0.28539-0.18347 0.28539-0.51372 0-0.30578-0.20793-0.46886-0.20386-0.16309-0.90104-0.31394l-0.26094-0.0612q-0.69719-0.14678-1.007-0.44848-0.30986-0.30579-0.30986-0.83582 0-0.64418 0.45664-0.99481 0.45663-0.35064 1.2965-0.35064 0.41587 0 0.78281 0.0612t0.6768 0.18347z"/>
   <path d="m344.91 632.17q-0.9092 0-1.2598 0.20794-0.35063 0.20793-0.35063 0.70942 0 0.39956 0.26093 0.63603 0.26502 0.2324 0.71758 0.2324 0.6238 0 0.99889-0.44033 0.37918-0.44441 0.37918-1.1783v-0.16717zm1.4963-0.30986v2.6053h-0.75019v-0.69311q-0.25686 0.41586-0.64011 0.61564-0.38325 0.1957-0.93774 0.1957-0.70127 0-1.1171-0.3914-0.41178-0.39548-0.41178-1.056 0-0.77057 0.51371-1.162 0.5178-0.3914 1.5412-0.3914h1.0519v-0.0734q0-0.5178-0.34248-0.79912-0.3384-0.2854-0.95405-0.2854-0.3914 0-0.76242 0.0938t-0.7135 0.28132v-0.69311q0.41179-0.15901 0.79912-0.23648 0.38732-0.0815 0.75426-0.0815 0.99075 0 1.48 0.51372 0.48926 0.51372 0.48926 1.5575z"/>
   <path d="m348.7 628.6v1.2965h1.5452v0.58303h-1.5452v2.4789q0 0.55856 0.15086 0.71757 0.15493 0.15901 0.6238 0.15901h0.77057v0.62788h-0.77057q-0.86843 0-1.1987-0.3221-0.33024-0.32617-0.33024-1.1824v-2.4789h-0.55042v-0.58303h0.55042v-1.2965z"/>
   <path d="m357.69 629.9-1.6512 2.222 1.7369 2.3444h-0.88474l-1.3291-1.7939-1.3292 1.7939h-0.88473l1.7736-2.3892-1.6227-2.1772h0.88474l1.2109 1.6268 1.2109-1.6268z"/>
   <path d="m362.63 629.9-1.6512 2.222 1.7368 2.3444h-0.88473l-1.3292-1.7939-1.3291 1.7939h-0.88474l1.7736-2.3892-1.6227-2.1772h0.88473l1.2109 1.6268 1.2109-1.6268z"/>
   <path d="m367.57 629.9-1.6512 2.222 1.7368 2.3444h-0.88473l-1.3292-1.7939-1.3291 1.7939h-0.88474l1.7736-2.3892-1.6227-2.1772h0.88473l1.2109 1.6268 1.2109-1.6268z"/>
   <path d="m368.82 633.43h0.86028v1.0356h-0.86028z"/>
   <path d="m375.17 629.9-1.6512 2.222 1.7369 2.3444h-0.88474l-1.3291-1.7939-1.3291 1.7939h-0.88474l1.7736-2.3892-1.6227-2.1772h0.88474l1.2109 1.6268 1.2109-1.6268z"/>
   <path d="m380.11 629.9-1.6512 2.222 1.7369 2.3444h-0.88474l-1.3291-1.7939-1.3292 1.7939h-0.88473l1.7736-2.3892-1.6227-2.1772h0.88474l1.2109 1.6268 1.2109-1.6268z"/>
   <path d="m381.37 633.43h0.86027v1.0356h-0.86027z"/>
   <path d="m387.71 629.9-1.6512 2.222 1.7368 2.3444h-0.88473l-1.3292-1.7939-1.3291 1.7939h-0.88474l1.7736-2.3892-1.6227-2.1772h0.88473l1.2109 1.6268 1.2109-1.6268z"/>
   <path d="m392.65 629.9-1.6512 2.222 1.7369 2.3444h-0.88474l-1.3291-1.7939-1.3291 1.7939h-0.88474l1.7736-2.3892-1.6227-2.1772h0.88474l1.2109 1.6268 1.2109-1.6268z"/>
   <path d="m393.91 633.43h0.86028v1.0356h-0.86028z"/>
   <path d="m400.25 629.9-1.6512 2.222 1.7369 2.3444h-0.88474l-1.3291-1.7939-1.3292 1.7939h-0.88473l1.7736-2.3892-1.6227-2.1772h0.88474l1.2109 1.6268 1.2109-1.6268z"/>
   <path d="m405.2 629.9-1.6512 2.222 1.7368 2.3444h-0.88473l-1.3292-1.7939-1.3291 1.7939h-0.88474l1.7736-2.3892-1.6227-2.1772h0.88473l1.2109 1.6268 1.2109-1.6268z"/>
   <path d="m410.14 629.9-1.6512 2.222 1.7369 2.3444h-0.88474l-1.3291-1.7939-1.3292 1.7939h-0.88473l1.7736-2.3892-1.6227-2.1772h0.88474l1.2109 1.6268 1.2109-1.6268z"/>
   <path d="m411.99 628.37v2.2628h-0.69312v-2.2628zm1.5412 0v2.2628h-0.69311v-2.2628z"/>
  </g>
 </g>
</svg>
